<mxfile host="app.diagrams.net" agent="Mozilla/5.0 (Windows NT 10.0; Win64; x64) AppleWebKit/537.36 (KHTML, like Gecko) Chrome/133.0.0.0 Safari/537.36" version="26.1.0">
  <diagram name="Страница — 1" id="-pZqQCONNlYd1umRvYbx">
    <mxGraphModel dx="1050" dy="522" grid="1" gridSize="10" guides="1" tooltips="1" connect="1" arrows="1" fold="1" page="1" pageScale="1" pageWidth="827" pageHeight="1169" math="0" shadow="0">
      <root>
        <mxCell id="0" />
        <mxCell id="1" parent="0" />
        <mxCell id="B6XsRb1fMLwGdHzFgd-A-1" value="" style="rounded=0;whiteSpace=wrap;html=1;" vertex="1" parent="1">
          <mxGeometry x="350" y="240" width="510" height="720" as="geometry" />
        </mxCell>
        <mxCell id="B6XsRb1fMLwGdHzFgd-A-2" value="Интеллектуальный ассистент по социальным сетям" style="text;html=1;align=center;verticalAlign=middle;whiteSpace=wrap;rounded=0;fontSize=14;" vertex="1" parent="1">
          <mxGeometry x="420" y="250" width="370" height="40" as="geometry" />
        </mxCell>
        <mxCell id="B6XsRb1fMLwGdHzFgd-A-3" value="Маркетолог" style="shape=umlActor;verticalLabelPosition=bottom;verticalAlign=top;html=1;outlineConnect=0;" vertex="1" parent="1">
          <mxGeometry x="210" y="340" width="30" height="60" as="geometry" />
        </mxCell>
        <mxCell id="B6XsRb1fMLwGdHzFgd-A-4" value="Аналитик" style="shape=umlActor;verticalLabelPosition=bottom;verticalAlign=top;html=1;outlineConnect=0;" vertex="1" parent="1">
          <mxGeometry x="210" y="460" width="30" height="60" as="geometry" />
        </mxCell>
        <mxCell id="B6XsRb1fMLwGdHzFgd-A-5" value="Журналист" style="shape=umlActor;verticalLabelPosition=bottom;verticalAlign=top;html=1;outlineConnect=0;" vertex="1" parent="1">
          <mxGeometry x="210" y="585" width="30" height="60" as="geometry" />
        </mxCell>
        <mxCell id="B6XsRb1fMLwGdHzFgd-A-6" value="Владелец бизнеса" style="shape=umlActor;verticalLabelPosition=bottom;verticalAlign=top;html=1;outlineConnect=0;" vertex="1" parent="1">
          <mxGeometry x="210" y="710" width="30" height="60" as="geometry" />
        </mxCell>
        <mxCell id="B6XsRb1fMLwGdHzFgd-A-8" value="Обычный пользователь" style="shape=umlActor;verticalLabelPosition=bottom;verticalAlign=top;html=1;outlineConnect=0;" vertex="1" parent="1">
          <mxGeometry x="210" y="830" width="30" height="60" as="geometry" />
        </mxCell>
        <mxCell id="B6XsRb1fMLwGdHzFgd-A-9" value="Выявление трендов" style="ellipse;whiteSpace=wrap;html=1;fontSize=14;" vertex="1" parent="1">
          <mxGeometry x="470" y="320" width="270" height="80" as="geometry" />
        </mxCell>
        <mxCell id="B6XsRb1fMLwGdHzFgd-A-10" value="Анализ социальных процессов" style="ellipse;whiteSpace=wrap;html=1;fontSize=14;" vertex="1" parent="1">
          <mxGeometry x="470" y="450" width="270" height="80" as="geometry" />
        </mxCell>
        <mxCell id="B6XsRb1fMLwGdHzFgd-A-11" value="Мониторинг дискуссий по различным событиям" style="ellipse;whiteSpace=wrap;html=1;fontSize=14;" vertex="1" parent="1">
          <mxGeometry x="450" y="577.5" width="310" height="75" as="geometry" />
        </mxCell>
        <mxCell id="B6XsRb1fMLwGdHzFgd-A-12" value="Отслеживание репутации бренда" style="ellipse;whiteSpace=wrap;html=1;fontSize=14;" vertex="1" parent="1">
          <mxGeometry x="450" y="702.5" width="310" height="75" as="geometry" />
        </mxCell>
        <mxCell id="B6XsRb1fMLwGdHzFgd-A-13" value="Получение аналитики о своем аккаунте" style="ellipse;whiteSpace=wrap;html=1;fontSize=14;" vertex="1" parent="1">
          <mxGeometry x="450" y="822.5" width="310" height="75" as="geometry" />
        </mxCell>
        <mxCell id="B6XsRb1fMLwGdHzFgd-A-14" value="" style="endArrow=none;html=1;rounded=0;entryX=0;entryY=0.5;entryDx=0;entryDy=0;" edge="1" parent="1" target="B6XsRb1fMLwGdHzFgd-A-9">
          <mxGeometry width="50" height="50" relative="1" as="geometry">
            <mxPoint x="260" y="360" as="sourcePoint" />
            <mxPoint x="310" y="210" as="targetPoint" />
          </mxGeometry>
        </mxCell>
        <mxCell id="B6XsRb1fMLwGdHzFgd-A-15" value="" style="endArrow=none;html=1;rounded=0;entryX=0;entryY=0.5;entryDx=0;entryDy=0;" edge="1" parent="1">
          <mxGeometry width="50" height="50" relative="1" as="geometry">
            <mxPoint x="260" y="489.5" as="sourcePoint" />
            <mxPoint x="470" y="489.5" as="targetPoint" />
          </mxGeometry>
        </mxCell>
        <mxCell id="B6XsRb1fMLwGdHzFgd-A-16" value="" style="endArrow=none;html=1;rounded=0;entryX=0;entryY=0.5;entryDx=0;entryDy=0;" edge="1" parent="1">
          <mxGeometry width="50" height="50" relative="1" as="geometry">
            <mxPoint x="260" y="615" as="sourcePoint" />
            <mxPoint x="450" y="614.5" as="targetPoint" />
          </mxGeometry>
        </mxCell>
        <mxCell id="B6XsRb1fMLwGdHzFgd-A-17" value="" style="endArrow=none;html=1;rounded=0;entryX=0;entryY=0.5;entryDx=0;entryDy=0;" edge="1" parent="1">
          <mxGeometry width="50" height="50" relative="1" as="geometry">
            <mxPoint x="260" y="740" as="sourcePoint" />
            <mxPoint x="450" y="739.5" as="targetPoint" />
          </mxGeometry>
        </mxCell>
        <mxCell id="B6XsRb1fMLwGdHzFgd-A-18" value="" style="endArrow=none;html=1;rounded=0;entryX=0;entryY=0.5;entryDx=0;entryDy=0;" edge="1" parent="1">
          <mxGeometry width="50" height="50" relative="1" as="geometry">
            <mxPoint x="260" y="860" as="sourcePoint" />
            <mxPoint x="450" y="859.5" as="targetPoint" />
          </mxGeometry>
        </mxCell>
      </root>
    </mxGraphModel>
  </diagram>
</mxfile>
